<?xml version="1.0" standalone="no"?>
<!DOCTYPE svg PUBLIC "-//W3C//DTD SVG 20010904//EN"
 "http://www.w3.org/TR/2001/REC-SVG-20010904/DTD/svg10.dtd">
<svg version="1.0" xmlns="http://www.w3.org/2000/svg"
 width="500.000000pt" height="500.000000pt" viewBox="0 0 500.000000 500.000000"
 preserveAspectRatio="xMidYMid meet">

<g transform="translate(0.000000,500.000000) scale(0.100000,-0.100000)"
fill="#000000" stroke="none">
<path d="M0 2500 l0 -2500 2500 0 2500 0 0 2500 0 2500 -2500 0 -2500 0 0
-2500z m2970 1735 c149 -27 307 -79 472 -156 352 -164 475 -207 621 -216 110
-7 107 -2 62 -93 -82 -162 -272 -327 -444 -385 -90 -31 -220 -48 -296 -41 -62
7 -208 34 -235 44 -8 3 -20 4 -25 4 -6 -1 -12 13 -13 31 -5 69 -7 70 -81 63
-37 -3 -88 -12 -114 -20 -26 -8 -49 -10 -52 -5 -3 4 -11 6 -18 3 -23 -8 -45
28 -71 120 -14 49 -28 91 -30 94 -7 7 -127 -34 -208 -72 -40 -18 -102 -54
-138 -79 l-64 -46 -53 125 c-29 69 -53 130 -53 135 0 13 -54 -16 -120 -65
-197 -144 -337 -373 -386 -629 -11 -57 -13 -62 -10 -23 2 28 -4 77 -14 115
-10 36 -20 80 -22 96 -2 17 -9 -17 -16 -75 -7 -58 -19 -139 -26 -180 -8 -41
-27 -142 -42 -223 -15 -81 -30 -144 -34 -140 -6 6 -48 157 -105 368 -7 29 -20
-149 -19 -275 1 -142 8 -188 58 -410 8 -36 24 -91 35 -122 l19 -57 -54 -7
c-30 -3 -54 -9 -54 -13 0 -4 28 -50 62 -102 64 -98 211 -255 264 -282 29 -15
183 -48 292 -62 55 -7 58 -5 46 43 -4 12 -13 22 -20 22 -22 0 -54 38 -54 64 0
14 7 32 16 41 16 15 15 22 -3 89 l-20 73 66 -39 c157 -92 330 -135 583 -144
294 -12 518 26 794 133 207 81 383 216 452 349 18 34 32 65 32 68 0 3 -18 6
-39 6 -22 0 -74 7 -117 15 -62 12 -85 12 -111 3 -23 -8 -39 -9 -55 -1 -17 8
-44 7 -94 -1 l-71 -13 -27 62 c-37 85 -112 166 -188 204 -57 29 -98 39 -98 25
0 -3 8 -19 17 -35 14 -24 15 -33 5 -49 -6 -11 -12 -46 -12 -78 l0 -59 -77 -7
c-43 -4 -94 -9 -113 -12 l-35 -6 1 -54 c1 -30 7 -61 14 -69 11 -13 5 -15 -46
-17 -161 -6 -228 15 -298 92 -138 152 -102 388 72 483 71 39 142 45 612 52
357 5 423 3 474 -10 138 -36 250 -128 309 -252 l32 -68 2 -770 c0 -424 -3
-752 -7 -730 -14 68 -58 173 -95 230 -125 188 -340 279 -732 311 l-83 7 0 -57
c0 -35 -4 -56 -11 -56 -9 0 -10 -24 -6 -82 4 -68 9 -84 27 -98 20 -15 20 -19
9 -57 -12 -38 -16 -41 -57 -47 -75 -10 -132 -7 -132 7 0 8 -3 9 -8 1 -4 -7
-86 -16 -207 -23 -110 -7 -202 -14 -204 -17 -15 -15 -78 -130 -75 -136 3 -5
84 -8 180 -8 l174 0 0 -24 c0 -13 -7 -27 -16 -30 -56 -22 -530 11 -739 50
-292 55 -494 143 -695 302 -329 261 -514 590 -574 1021 -18 124 -22 466 -7
534 5 23 15 69 21 102 52 274 221 558 453 763 305 270 650 424 1102 492 93 14
435 4 545 -15z m-335 -755 c-112 -10 -199 -32 -292 -75 -232 -107 -410 -306
-492 -550 -17 -49 -31 -80 -31 -68 0 24 -36 40 -65 29 -20 -7 -19 -2 9 80 56
167 163 312 306 419 86 65 280 143 404 164 28 5 96 9 151 8 l100 0 -90 -7z
m152 -6 c-3 -3 -12 -4 -19 -1 -8 3 -5 6 6 6 11 1 17 -2 13 -5z m-970 -746 c-3
-7 -5 -2 -5 12 0 14 2 19 5 13 2 -7 2 -19 0 -25z m-177 -328 c0 -11 -4 -20
-10 -20 -5 0 -10 9 -10 20 0 11 5 20 10 20 6 0 10 -9 10 -20z m311 -357 c13
-16 12 -17 -3 -4 -10 7 -18 15 -18 17 0 8 8 3 21 -13z m50 -40 c13 -16 12 -17
-3 -4 -10 7 -18 15 -18 17 0 8 8 3 21 -13z"/>
<path d="M1461 3014 c0 -11 3 -14 6 -6 3 7 2 16 -1 19 -3 4 -6 -2 -5 -13z"/>
</g>
</svg>
