<?xml version="1.0" standalone="no"?>
<!DOCTYPE svg PUBLIC "-//W3C//DTD SVG 20010904//EN"
 "http://www.w3.org/TR/2001/REC-SVG-20010904/DTD/svg10.dtd">
<svg version="1.0" xmlns="http://www.w3.org/2000/svg"
 width="500.000000pt" height="500.000000pt" viewBox="0 0 500.000000 500.000000"
 preserveAspectRatio="xMidYMid meet">

<g transform="translate(0.000000,500.000000) scale(0.100000,-0.100000)"
fill="#000000" stroke="none">
<path d="M2195 3732 c-49 -25 -137 -93 -191 -147 -140 -140 -240 -332 -280
-538 -11 -57 -13 -62 -10 -23 2 28 -4 77 -14 115 -10 36 -20 80 -22 96 -2 17
-9 -17 -16 -75 -7 -58 -19 -139 -26 -180 -8 -41 -27 -142 -42 -223 -15 -81
-30 -144 -34 -140 -6 6 -48 157 -105 368 -7 29 -20 -149 -19 -275 1 -142 8
-188 58 -410 8 -36 24 -91 35 -122 l19 -57 -54 -7 c-30 -3 -54 -9 -54 -13 0
-4 28 -50 62 -102 64 -98 211 -255 264 -282 29 -15 183 -48 292 -62 55 -7 58
-5 46 43 -4 12 -13 22 -20 22 -22 0 -54 38 -54 64 0 14 7 32 16 41 16 15 15
22 -3 90 l-21 73 48 -29 c70 -43 169 -86 252 -109 107 -29 112 -25 20 20 -223
108 -376 251 -463 435 -54 116 -73 219 -66 377 l4 128 -23 6 c-13 3 -31 4 -39
0 -20 -7 -19 -2 9 80 45 134 111 239 209 334 115 111 225 172 402 226 83 26
104 28 260 28 l171 1 -28 94 c-16 52 -30 97 -33 99 -6 7 -128 -35 -207 -72
-40 -18 -102 -54 -138 -79 -56 -40 -66 -44 -72 -29 -3 9 -28 69 -55 133 l-49
117 -29 -16z m-555 -1332 c0 -11 -4 -20 -10 -20 -5 0 -10 9 -10 20 0 11 5 20
10 20 6 0 10 -9 10 -20z m311 -357 c13 -16 12 -17 -3 -4 -10 7 -18 15 -18 17
0 8 8 3 21 -13z m50 -40 c13 -16 12 -17 -3 -4 -10 7 -18 15 -18 17 0 8 8 3 21
-13z"/>
<path d="M2958 3476 c-32 -7 -60 -15 -63 -18 -3 -3 36 -15 87 -27 142 -34 137
-33 133 -13 -15 75 -13 72 -58 71 -23 0 -68 -6 -99 -13z"/>
<path d="M1461 3014 c0 -11 3 -14 6 -6 3 7 2 16 -1 19 -3 4 -6 -2 -5 -13z"/>
<path d="M3150 2654 c0 -3 8 -19 17 -35 14 -24 15 -33 5 -49 -6 -11 -12 -46
-12 -78 l0 -59 -77 -7 c-43 -4 -94 -9 -113 -12 l-35 -6 1 -53 c1 -29 5 -59 9
-65 6 -10 67 -11 261 -7 l254 6 0 -175 c0 -137 3 -174 13 -174 19 0 175 81
233 121 77 52 177 158 212 225 17 34 32 65 32 68 0 3 -18 6 -39 6 -22 0 -74 7
-117 15 -62 12 -85 12 -111 3 -23 -8 -39 -9 -55 -1 -17 8 -44 7 -94 -1 l-71
-13 -27 62 c-37 85 -112 166 -188 204 -57 29 -98 39 -98 25z"/>
<path d="M3190 1556 c0 -35 -4 -56 -11 -56 -9 0 -10 -24 -6 -82 4 -68 9 -84
27 -98 20 -15 20 -19 9 -57 -12 -38 -16 -41 -57 -47 -75 -10 -132 -7 -132 7 0
8 -3 9 -8 1 -4 -7 -86 -16 -207 -23 -110 -7 -202 -14 -204 -17 -15 -15 -78
-130 -75 -136 3 -5 84 -8 180 -8 l174 0 0 -24 c0 -16 7 -26 23 -30 12 -3 119
-6 237 -6 542 0 783 -45 909 -169 24 -23 46 -40 49 -37 3 3 6 72 6 153 0 142
-1 151 -31 230 -110 288 -328 411 -800 449 l-83 7 0 -57z"/>
</g>
</svg>
