<?xml version="1.0" standalone="no"?>
<!DOCTYPE svg PUBLIC "-//W3C//DTD SVG 20010904//EN"
 "http://www.w3.org/TR/2001/REC-SVG-20010904/DTD/svg10.dtd">
<svg version="1.0" xmlns="http://www.w3.org/2000/svg"
 width="500.000000pt" height="500.000000pt" viewBox="0 0 500.000000 500.000000"
 preserveAspectRatio="xMidYMid meet">

<g transform="translate(0.000000,500.000000) scale(0.100000,-0.100000)"
fill="#000000" stroke="none">
<path d="M0 2500 l0 -2500 2500 0 2500 0 0 2500 0 2500 -2500 0 -2500 0 0
-2500z m2987 1731 c154 -29 296 -77 476 -162 331 -156 455 -199 599 -207 l97
-5 -17 -41 c-67 -170 -241 -343 -413 -413 -195 -79 -379 -72 -769 28 -148 38
-178 42 -290 43 -142 1 -209 -13 -327 -68 -198 -94 -354 -250 -449 -449 -201
-426 -20 -862 452 -1088 101 -48 139 -55 319 -64 255 -13 509 25 733 107 l52
19 0 176 0 176 -292 -8 c-161 -4 -319 -7 -350 -7 -234 3 -362 296 -216 497 33
45 94 90 147 106 52 16 919 33 995 20 143 -25 277 -127 339 -258 l32 -68 0
-890 c0 -490 -4 -899 -8 -909 -7 -18 -9 -18 -26 10 -57 94 -210 158 -441 184
-52 6 -293 13 -535 15 -627 8 -839 25 -1095 90 -372 93 -689 311 -889 609
-123 184 -198 375 -242 613 -31 164 -33 518 -5 668 56 297 192 545 422 765
299 286 656 455 1114 526 127 20 444 12 587 -15z"/>
</g>
</svg>
